<svg width="42" height="35" viewBox="0 0 42 35" fill="none" xmlns="http://www.w3.org/2000/svg">
<mask id="path-1-inside-1" fill="white">
<path fill-rule="evenodd" clip-rule="evenodd" d="M21.1172 33.5084H18.8305C18.569 33.5084 18.3549 33.2941 18.3549 33.02C18.3549 32.7565 18.569 32.5421 18.8305 32.5421H19.3306C19.736 32.5421 20.0677 32.2083 20.0677 31.7902C20.0677 31.3844 19.736 31.0523 19.3306 31.0523H14.7554C14.3518 31.0523 14.0166 31.3844 14.0166 31.7902C14.0166 32.2083 14.3518 32.5421 14.7554 32.5421H16.972C17.2457 32.5421 17.4598 32.7565 17.4598 33.02C17.4598 33.2941 17.2457 33.5084 16.972 33.5084H16.5437C16.1383 33.5084 15.8049 33.8405 15.8049 34.2481C15.8049 34.6644 16.1383 35 16.5437 35H21.1172C21.5208 35 21.856 34.6644 21.856 34.2481C21.856 33.8405 21.5208 33.5084 21.1172 33.5084Z"/>
<path fill-rule="evenodd" clip-rule="evenodd" d="M24.2466 33.5084H23.1866C22.783 33.5084 22.4495 33.8405 22.4495 34.2481C22.4495 34.6644 22.783 35 23.1866 35H24.2466C24.6503 35 24.9855 34.6644 24.9855 34.2481C24.9855 33.8405 24.6503 33.5084 24.2466 33.5084Z"/>
<path fill-rule="evenodd" clip-rule="evenodd" d="M12.8171 31.0516H12.3906C11.9852 31.0516 11.6518 31.3837 11.6518 31.7913C11.6518 32.2076 11.9852 32.5432 12.3906 32.5432H12.8171C13.2207 32.5432 13.5559 32.2076 13.5559 31.7913C13.5559 31.3837 13.2207 31.0516 12.8171 31.0516Z"/>
<path fill-rule="evenodd" clip-rule="evenodd" d="M28.3255 23.2264C28.4431 23.3178 28.5835 23.3617 28.7256 23.3617C28.9222 23.3617 29.117 23.2721 29.2469 23.1034L32.8586 18.3757C33.0797 18.0876 33.0253 17.6747 32.7357 17.4534C32.4514 17.2355 32.0355 17.2847 31.8126 17.5763L28.2027 22.304C27.9815 22.5922 28.0359 23.005 28.3255 23.2264Z"/>
<path fill-rule="evenodd" clip-rule="evenodd" d="M31.2082 22.3513L28.8057 25.4978C28.5845 25.786 28.6389 26.1988 28.9285 26.4202C29.0478 26.5116 29.1882 26.5572 29.3286 26.5572C29.5252 26.5572 29.72 26.4676 29.8516 26.2972L32.2542 23.1507C32.4753 22.8626 32.4191 22.4497 32.1296 22.2283C31.8453 22.0087 31.4311 22.0614 31.2082 22.3513Z"/>
<path fill-rule="evenodd" clip-rule="evenodd" d="M6.71754 23.3619C6.91409 23.3619 7.11065 23.2723 7.24052 23.1036L10.8505 18.3759C11.0716 18.0878 11.0172 17.6749 10.7276 17.4535C10.4433 17.2357 10.0291 17.2849 9.80627 17.5765L6.19456 22.3025C5.97343 22.5923 6.02784 23.0052 6.31741 23.2266C6.43674 23.3179 6.57714 23.3619 6.71754 23.3619Z"/>
<path fill-rule="evenodd" clip-rule="evenodd" d="M9.20256 22.3513L6.80002 25.4978C6.5789 25.786 6.6333 26.1988 6.92287 26.4202C7.04221 26.5116 7.1826 26.5572 7.323 26.5572C7.51955 26.5572 7.71436 26.4676 7.84598 26.2972L10.2485 23.1507C10.4696 22.8626 10.4135 22.4497 10.1239 22.2283C9.83961 22.0087 9.42544 22.0614 9.20256 22.3513Z"/>
<path fill-rule="evenodd" clip-rule="evenodd" d="M11.7185 14.6376V24.0913H10.6795C10.3163 24.0913 10.0214 24.3865 10.0214 24.7501C10.0214 25.1138 10.3163 25.4089 10.6795 25.4089H11.7185V28.6451H4.90045V14.6376H11.7185ZM6.99587 10.8674H24.2278C25.7143 10.8674 26.9621 11.9198 27.2622 13.32H3.95804C4.26164 11.9198 5.50767 10.8674 6.99587 10.8674ZM34.4821 13.32H28.5819C28.4397 12.373 28.0115 11.521 27.3692 10.8674H31.4442C32.9325 10.8674 34.1785 11.9198 34.4821 13.32ZM33.5397 28.6451H27.6377V14.6376H33.5397V28.6451ZM14.2579 25.4089L13.9806 26.3717C13.949 26.4824 13.9473 26.6019 13.9736 26.7125L14.451 28.6451H13.0347V25.4089H14.2579ZM24.907 25.4089H26.3215V28.6451H24.8877L24.907 25.4089ZM22.5132 16.8144C22.5132 16.5421 22.7361 16.319 23.0099 16.319C23.2819 16.319 23.5048 16.5421 23.5048 16.8144C23.5048 17.048 23.3258 17.1781 23.2503 17.2237C23.1485 17.2852 23.0661 17.3713 23.0099 17.4715C22.952 17.3713 22.8695 17.2852 22.7677 17.2237C22.6922 17.1781 22.5132 17.048 22.5132 16.8144ZM22.7291 18.6977C22.8502 18.6345 22.945 18.5414 23.0099 18.4272C23.0731 18.5414 23.1678 18.6345 23.2889 18.6977L24.3226 19.2195L24.3524 22.6928L23.8277 23.1461C23.6838 23.2708 23.6013 23.4518 23.6013 23.6415L23.5943 24.7484V24.7519L23.5715 28.6451H23.0397L22.5062 28.6345L22.4606 24.7554L22.4624 24.7501L22.4606 24.7431L22.4483 23.696C22.4466 23.4852 22.3448 23.2884 22.1728 23.1654L21.6726 22.8106L21.6972 19.2195L22.7291 18.6977ZM18.4786 26.774L19.4421 25.4089H21.1514L21.19 28.6451H18.9559L18.4786 26.774ZM16.5832 18.6608C16.5832 18.3885 16.8061 18.1654 17.0799 18.1654C17.3519 18.1654 17.5748 18.3885 17.5748 18.6608C17.5748 18.8945 17.3958 19.0245 17.3203 19.0684C17.2185 19.1317 17.136 19.216 17.0799 19.3179C17.022 19.216 16.9412 19.1317 16.8377 19.0684C16.7622 19.0245 16.5832 18.8945 16.5832 18.6608ZM16.8008 20.4792C16.9202 20.4177 17.0167 20.3228 17.0799 20.2104C17.1431 20.3228 17.2396 20.4177 17.3589 20.4792L18.3926 21.0027L18.4224 24.2354C18.2662 24.3566 18.1592 24.5375 18.1592 24.7501C18.1592 24.8028 18.1785 24.8503 18.1908 24.9012L17.2291 26.261C17.115 26.4191 17.0799 26.6177 17.1273 26.8057L17.573 28.5502L15.7777 28.5239L15.2933 26.5685L15.7145 25.1156C15.7321 25.0576 15.7408 24.9961 15.7408 24.9364L15.7672 21.0027L16.8008 20.4792ZM26.3215 14.6376V24.0913H24.9158V23.949L25.444 23.4922C25.5897 23.3657 25.6739 23.1795 25.6722 22.988L25.6353 18.8084C25.6336 18.5607 25.4932 18.3358 25.2738 18.2251L24.4963 17.8316C24.7052 17.5365 24.821 17.1851 24.821 16.8144C24.821 15.8147 24.0085 15.0013 23.0099 15.0013C22.0096 15.0013 21.197 15.8147 21.197 16.8144C21.197 17.1851 21.3129 17.5365 21.5217 17.8316L20.746 18.2251C20.5249 18.3358 20.3845 18.5625 20.3827 18.8084L20.3546 23.1444C20.3529 23.3604 20.4564 23.5607 20.6302 23.6855L21.1356 24.0456V24.0913H19.7369L19.7053 20.5899C19.7036 20.3439 19.5632 20.119 19.3438 20.0084L18.5979 19.6306C18.7875 19.346 18.891 19.0122 18.891 18.6608C18.891 17.6612 18.0785 16.8478 17.0799 16.8478C16.0796 16.8478 15.267 17.6612 15.267 18.6608C15.267 19.0122 15.3706 19.346 15.5601 19.6306L14.816 20.0084C14.5949 20.119 14.4562 20.3457 14.4545 20.5916L14.4299 24.0913H13.0347V14.6376H26.3215ZM37.4357 28.6943H34.8559V14.6376H35.2104C35.5737 14.6376 35.8685 14.3425 35.8685 13.9788C35.8685 11.5368 33.8836 9.54977 31.4442 9.54977H24.4841C24.4542 9.54977 24.4279 9.56382 24.3998 9.56734C24.3402 9.56558 24.2858 9.54977 24.2278 9.54977H6.99587C4.55648 9.54977 2.57162 11.5368 2.57162 13.9788C2.57162 14.3425 2.86645 14.6376 3.22973 14.6376H3.58423V28.6943H1.38702C1.02374 28.6943 0.728907 28.9894 0.728907 29.3531C0.728907 29.7168 1.02374 30.0119 1.38702 30.0119H37.4357C37.799 30.0119 38.0938 29.7168 38.0938 29.3531C38.0938 28.9894 37.799 28.6943 37.4357 28.6943Z"/>
<path fill-rule="evenodd" clip-rule="evenodd" d="M41.0335 28.6943H39.6383C39.2751 28.6943 38.9802 28.9894 38.9802 29.3531C38.9802 29.7168 39.2751 30.0119 39.6383 30.0119H41.0335C41.3968 30.0119 41.6916 29.7168 41.6916 29.3531C41.6916 28.9894 41.3968 28.6943 41.0335 28.6943Z"/>
<path fill-rule="evenodd" clip-rule="evenodd" d="M8.02691 4.14795V6.21402C8.02691 6.57769 8.32175 6.87284 8.68502 6.87284H12.9917C13.355 6.87284 13.6498 6.57769 13.6498 6.21402V3.49088L15.2714 1.67429L16.7315 3.47331V5.09841C16.7315 5.46208 17.0264 5.75723 17.3896 5.75723H20.7539C21.1172 5.75723 21.412 5.46208 21.412 5.09841V2.45433H26.5031V6.21402C26.5031 6.57769 26.798 6.87284 27.1613 6.87284H30.5167C30.88 6.87284 31.1749 6.57769 31.1749 6.21402V3.96172C31.1749 3.25722 31.668 2.68624 32.27 2.68624C32.8737 2.68624 33.365 3.25722 33.365 3.96172V5.09841C33.365 5.46208 33.6599 5.75723 34.0232 5.75723H39.2301C39.5934 5.75723 39.8882 5.46208 39.8882 5.09841C39.8882 4.73474 39.5934 4.43959 39.2301 4.43959H34.6813V3.96172C34.6813 2.53164 33.6002 1.36859 32.27 1.36859C30.9414 1.36859 29.8586 2.53164 29.8586 3.96172V5.55519H27.8194V1.79551C27.8194 1.43184 27.5245 1.13669 27.1613 1.13669H20.7539C20.3906 1.13669 20.0958 1.43184 20.0958 1.79551V4.43959H18.0477V3.23965C18.0477 3.08856 17.9969 2.94098 17.9003 2.82503L15.8067 0.242447C15.6838 0.0931136 15.5048 0.00527058 15.31 0C15.1468 0.024596 14.9344 0.0773018 14.8046 0.219608L12.5021 2.80044C12.3933 2.92342 12.3336 3.07978 12.3336 3.23965V5.55519H9.34313V3.48913C9.34313 3.12545 9.0483 2.8303 8.68502 2.8303H0.966704C0.603427 2.8303 0.308594 3.12545 0.308594 3.48913C0.308594 3.8528 0.603427 4.14795 0.966704 4.14795H8.02691Z"/>
</mask>
<path fill-rule="evenodd" clip-rule="evenodd" d="M21.1172 33.5084H18.8305C18.569 33.5084 18.3549 33.2941 18.3549 33.02C18.3549 32.7565 18.569 32.5421 18.8305 32.5421H19.3306C19.736 32.5421 20.0677 32.2083 20.0677 31.7902C20.0677 31.3844 19.736 31.0523 19.3306 31.0523H14.7554C14.3518 31.0523 14.0166 31.3844 14.0166 31.7902C14.0166 32.2083 14.3518 32.5421 14.7554 32.5421H16.972C17.2457 32.5421 17.4598 32.7565 17.4598 33.02C17.4598 33.2941 17.2457 33.5084 16.972 33.5084H16.5437C16.1383 33.5084 15.8049 33.8405 15.8049 34.2481C15.8049 34.6644 16.1383 35 16.5437 35H21.1172C21.5208 35 21.856 34.6644 21.856 34.2481C21.856 33.8405 21.5208 33.5084 21.1172 33.5084Z" fill="white"/>
<path fill-rule="evenodd" clip-rule="evenodd" d="M24.2466 33.5084H23.1866C22.783 33.5084 22.4495 33.8405 22.4495 34.2481C22.4495 34.6644 22.783 35 23.1866 35H24.2466C24.6503 35 24.9855 34.6644 24.9855 34.2481C24.9855 33.8405 24.6503 33.5084 24.2466 33.5084Z" fill="white"/>
<path fill-rule="evenodd" clip-rule="evenodd" d="M12.8171 31.0516H12.3906C11.9852 31.0516 11.6518 31.3837 11.6518 31.7913C11.6518 32.2076 11.9852 32.5432 12.3906 32.5432H12.8171C13.2207 32.5432 13.5559 32.2076 13.5559 31.7913C13.5559 31.3837 13.2207 31.0516 12.8171 31.0516Z" fill="white"/>
<path fill-rule="evenodd" clip-rule="evenodd" d="M28.3255 23.2264C28.4431 23.3178 28.5835 23.3617 28.7256 23.3617C28.9222 23.3617 29.117 23.2721 29.2469 23.1034L32.8586 18.3757C33.0797 18.0876 33.0253 17.6747 32.7357 17.4534C32.4514 17.2355 32.0355 17.2847 31.8126 17.5763L28.2027 22.304C27.9815 22.5922 28.0359 23.005 28.3255 23.2264Z" fill="white"/>
<path fill-rule="evenodd" clip-rule="evenodd" d="M31.2082 22.3513L28.8057 25.4978C28.5845 25.786 28.6389 26.1988 28.9285 26.4202C29.0478 26.5116 29.1882 26.5572 29.3286 26.5572C29.5252 26.5572 29.72 26.4676 29.8516 26.2972L32.2542 23.1507C32.4753 22.8626 32.4191 22.4497 32.1296 22.2283C31.8453 22.0087 31.4311 22.0614 31.2082 22.3513Z" fill="white"/>
<path fill-rule="evenodd" clip-rule="evenodd" d="M6.71754 23.3619C6.91409 23.3619 7.11065 23.2723 7.24052 23.1036L10.8505 18.3759C11.0716 18.0878 11.0172 17.6749 10.7276 17.4535C10.4433 17.2357 10.0291 17.2849 9.80627 17.5765L6.19456 22.3025C5.97343 22.5923 6.02784 23.0052 6.31741 23.2266C6.43674 23.3179 6.57714 23.3619 6.71754 23.3619Z" fill="white"/>
<path fill-rule="evenodd" clip-rule="evenodd" d="M9.20256 22.3513L6.80002 25.4978C6.5789 25.786 6.6333 26.1988 6.92287 26.4202C7.04221 26.5116 7.1826 26.5572 7.323 26.5572C7.51955 26.5572 7.71436 26.4676 7.84598 26.2972L10.2485 23.1507C10.4696 22.8626 10.4135 22.4497 10.1239 22.2283C9.83961 22.0087 9.42544 22.0614 9.20256 22.3513Z" fill="white"/>
<path fill-rule="evenodd" clip-rule="evenodd" d="M11.7185 14.6376V24.0913H10.6795C10.3163 24.0913 10.0214 24.3865 10.0214 24.7501C10.0214 25.1138 10.3163 25.4089 10.6795 25.4089H11.7185V28.6451H4.90045V14.6376H11.7185ZM6.99587 10.8674H24.2278C25.7143 10.8674 26.9621 11.9198 27.2622 13.32H3.95804C4.26164 11.9198 5.50767 10.8674 6.99587 10.8674ZM34.4821 13.32H28.5819C28.4397 12.373 28.0115 11.521 27.3692 10.8674H31.4442C32.9325 10.8674 34.1785 11.9198 34.4821 13.32ZM33.5397 28.6451H27.6377V14.6376H33.5397V28.6451ZM14.2579 25.4089L13.9806 26.3717C13.949 26.4824 13.9473 26.6019 13.9736 26.7125L14.451 28.6451H13.0347V25.4089H14.2579ZM24.907 25.4089H26.3215V28.6451H24.8877L24.907 25.4089ZM22.5132 16.8144C22.5132 16.5421 22.7361 16.319 23.0099 16.319C23.2819 16.319 23.5048 16.5421 23.5048 16.8144C23.5048 17.048 23.3258 17.1781 23.2503 17.2237C23.1485 17.2852 23.0661 17.3713 23.0099 17.4715C22.952 17.3713 22.8695 17.2852 22.7677 17.2237C22.6922 17.1781 22.5132 17.048 22.5132 16.8144ZM22.7291 18.6977C22.8502 18.6345 22.945 18.5414 23.0099 18.4272C23.0731 18.5414 23.1678 18.6345 23.2889 18.6977L24.3226 19.2195L24.3524 22.6928L23.8277 23.1461C23.6838 23.2708 23.6013 23.4518 23.6013 23.6415L23.5943 24.7484V24.7519L23.5715 28.6451H23.0397L22.5062 28.6345L22.4606 24.7554L22.4624 24.7501L22.4606 24.7431L22.4483 23.696C22.4466 23.4852 22.3448 23.2884 22.1728 23.1654L21.6726 22.8106L21.6972 19.2195L22.7291 18.6977ZM18.4786 26.774L19.4421 25.4089H21.1514L21.19 28.6451H18.9559L18.4786 26.774ZM16.5832 18.6608C16.5832 18.3885 16.8061 18.1654 17.0799 18.1654C17.3519 18.1654 17.5748 18.3885 17.5748 18.6608C17.5748 18.8945 17.3958 19.0245 17.3203 19.0684C17.2185 19.1317 17.136 19.216 17.0799 19.3179C17.022 19.216 16.9412 19.1317 16.8377 19.0684C16.7622 19.0245 16.5832 18.8945 16.5832 18.6608ZM16.8008 20.4792C16.9202 20.4177 17.0167 20.3228 17.0799 20.2104C17.1431 20.3228 17.2396 20.4177 17.3589 20.4792L18.3926 21.0027L18.4224 24.2354C18.2662 24.3566 18.1592 24.5375 18.1592 24.7501C18.1592 24.8028 18.1785 24.8503 18.1908 24.9012L17.2291 26.261C17.115 26.4191 17.0799 26.6177 17.1273 26.8057L17.573 28.5502L15.7777 28.5239L15.2933 26.5685L15.7145 25.1156C15.7321 25.0576 15.7408 24.9961 15.7408 24.9364L15.7672 21.0027L16.8008 20.4792ZM26.3215 14.6376V24.0913H24.9158V23.949L25.444 23.4922C25.5897 23.3657 25.6739 23.1795 25.6722 22.988L25.6353 18.8084C25.6336 18.5607 25.4932 18.3358 25.2738 18.2251L24.4963 17.8316C24.7052 17.5365 24.821 17.1851 24.821 16.8144C24.821 15.8147 24.0085 15.0013 23.0099 15.0013C22.0096 15.0013 21.197 15.8147 21.197 16.8144C21.197 17.1851 21.3129 17.5365 21.5217 17.8316L20.746 18.2251C20.5249 18.3358 20.3845 18.5625 20.3827 18.8084L20.3546 23.1444C20.3529 23.3604 20.4564 23.5607 20.6302 23.6855L21.1356 24.0456V24.0913H19.7369L19.7053 20.5899C19.7036 20.3439 19.5632 20.119 19.3438 20.0084L18.5979 19.6306C18.7875 19.346 18.891 19.0122 18.891 18.6608C18.891 17.6612 18.0785 16.8478 17.0799 16.8478C16.0796 16.8478 15.267 17.6612 15.267 18.6608C15.267 19.0122 15.3706 19.346 15.5601 19.6306L14.816 20.0084C14.5949 20.119 14.4562 20.3457 14.4545 20.5916L14.4299 24.0913H13.0347V14.6376H26.3215ZM37.4357 28.6943H34.8559V14.6376H35.2104C35.5737 14.6376 35.8685 14.3425 35.8685 13.9788C35.8685 11.5368 33.8836 9.54977 31.4442 9.54977H24.4841C24.4542 9.54977 24.4279 9.56382 24.3998 9.56734C24.3402 9.56558 24.2858 9.54977 24.2278 9.54977H6.99587C4.55648 9.54977 2.57162 11.5368 2.57162 13.9788C2.57162 14.3425 2.86645 14.6376 3.22973 14.6376H3.58423V28.6943H1.38702C1.02374 28.6943 0.728907 28.9894 0.728907 29.3531C0.728907 29.7168 1.02374 30.0119 1.38702 30.0119H37.4357C37.799 30.0119 38.0938 29.7168 38.0938 29.3531C38.0938 28.9894 37.799 28.6943 37.4357 28.6943Z" fill="white"/>
<path fill-rule="evenodd" clip-rule="evenodd" d="M41.0335 28.6943H39.6383C39.2751 28.6943 38.9802 28.9894 38.9802 29.3531C38.9802 29.7168 39.2751 30.0119 39.6383 30.0119H41.0335C41.3968 30.0119 41.6916 29.7168 41.6916 29.3531C41.6916 28.9894 41.3968 28.6943 41.0335 28.6943Z" fill="white"/>
<path fill-rule="evenodd" clip-rule="evenodd" d="M8.02691 4.14795V6.21402C8.02691 6.57769 8.32175 6.87284 8.68502 6.87284H12.9917C13.355 6.87284 13.6498 6.57769 13.6498 6.21402V3.49088L15.2714 1.67429L16.7315 3.47331V5.09841C16.7315 5.46208 17.0264 5.75723 17.3896 5.75723H20.7539C21.1172 5.75723 21.412 5.46208 21.412 5.09841V2.45433H26.5031V6.21402C26.5031 6.57769 26.798 6.87284 27.1613 6.87284H30.5167C30.88 6.87284 31.1749 6.57769 31.1749 6.21402V3.96172C31.1749 3.25722 31.668 2.68624 32.27 2.68624C32.8737 2.68624 33.365 3.25722 33.365 3.96172V5.09841C33.365 5.46208 33.6599 5.75723 34.0232 5.75723H39.2301C39.5934 5.75723 39.8882 5.46208 39.8882 5.09841C39.8882 4.73474 39.5934 4.43959 39.2301 4.43959H34.6813V3.96172C34.6813 2.53164 33.6002 1.36859 32.27 1.36859C30.9414 1.36859 29.8586 2.53164 29.8586 3.96172V5.55519H27.8194V1.79551C27.8194 1.43184 27.5245 1.13669 27.1613 1.13669H20.7539C20.3906 1.13669 20.0958 1.43184 20.0958 1.79551V4.43959H18.0477V3.23965C18.0477 3.08856 17.9969 2.94098 17.9003 2.82503L15.8067 0.242447C15.6838 0.0931136 15.5048 0.00527058 15.31 0C15.1468 0.024596 14.9344 0.0773018 14.8046 0.219608L12.5021 2.80044C12.3933 2.92342 12.3336 3.07978 12.3336 3.23965V5.55519H9.34313V3.48913C9.34313 3.12545 9.0483 2.8303 8.68502 2.8303H0.966704C0.603427 2.8303 0.308594 3.12545 0.308594 3.48913C0.308594 3.8528 0.603427 4.14795 0.966704 4.14795H8.02691Z" fill="white"/>
<path fill-rule="evenodd" clip-rule="evenodd" d="M21.1172 33.5084H18.8305C18.569 33.5084 18.3549 33.2941 18.3549 33.02C18.3549 32.7565 18.569 32.5421 18.8305 32.5421H19.3306C19.736 32.5421 20.0677 32.2083 20.0677 31.7902C20.0677 31.3844 19.736 31.0523 19.3306 31.0523H14.7554C14.3518 31.0523 14.0166 31.3844 14.0166 31.7902C14.0166 32.2083 14.3518 32.5421 14.7554 32.5421H16.972C17.2457 32.5421 17.4598 32.7565 17.4598 33.02C17.4598 33.2941 17.2457 33.5084 16.972 33.5084H16.5437C16.1383 33.5084 15.8049 33.8405 15.8049 34.2481C15.8049 34.6644 16.1383 35 16.5437 35H21.1172C21.5208 35 21.856 34.6644 21.856 34.2481C21.856 33.8405 21.5208 33.5084 21.1172 33.5084Z" stroke="black" stroke-width="0.2" mask="url(#path-1-inside-1)"/>
<path fill-rule="evenodd" clip-rule="evenodd" d="M24.2466 33.5084H23.1866C22.783 33.5084 22.4495 33.8405 22.4495 34.2481C22.4495 34.6644 22.783 35 23.1866 35H24.2466C24.6503 35 24.9855 34.6644 24.9855 34.2481C24.9855 33.8405 24.6503 33.5084 24.2466 33.5084Z" stroke="black" stroke-width="0.2" mask="url(#path-1-inside-1)"/>
<path fill-rule="evenodd" clip-rule="evenodd" d="M12.8171 31.0516H12.3906C11.9852 31.0516 11.6518 31.3837 11.6518 31.7913C11.6518 32.2076 11.9852 32.5432 12.3906 32.5432H12.8171C13.2207 32.5432 13.5559 32.2076 13.5559 31.7913C13.5559 31.3837 13.2207 31.0516 12.8171 31.0516Z" stroke="black" stroke-width="0.2" mask="url(#path-1-inside-1)"/>
<path fill-rule="evenodd" clip-rule="evenodd" d="M28.3255 23.2264C28.4431 23.3178 28.5835 23.3617 28.7256 23.3617C28.9222 23.3617 29.117 23.2721 29.2469 23.1034L32.8586 18.3757C33.0797 18.0876 33.0253 17.6747 32.7357 17.4534C32.4514 17.2355 32.0355 17.2847 31.8126 17.5763L28.2027 22.304C27.9815 22.5922 28.0359 23.005 28.3255 23.2264Z" stroke="black" stroke-width="0.2" mask="url(#path-1-inside-1)"/>
<path fill-rule="evenodd" clip-rule="evenodd" d="M31.2082 22.3513L28.8057 25.4978C28.5845 25.786 28.6389 26.1988 28.9285 26.4202C29.0478 26.5116 29.1882 26.5572 29.3286 26.5572C29.5252 26.5572 29.72 26.4676 29.8516 26.2972L32.2542 23.1507C32.4753 22.8626 32.4191 22.4497 32.1296 22.2283C31.8453 22.0087 31.4311 22.0614 31.2082 22.3513Z" stroke="black" stroke-width="0.2" mask="url(#path-1-inside-1)"/>
<path fill-rule="evenodd" clip-rule="evenodd" d="M6.71754 23.3619C6.91409 23.3619 7.11065 23.2723 7.24052 23.1036L10.8505 18.3759C11.0716 18.0878 11.0172 17.6749 10.7276 17.4535C10.4433 17.2357 10.0291 17.2849 9.80627 17.5765L6.19456 22.3025C5.97343 22.5923 6.02784 23.0052 6.31741 23.2266C6.43674 23.3179 6.57714 23.3619 6.71754 23.3619Z" stroke="black" stroke-width="0.2" mask="url(#path-1-inside-1)"/>
<path fill-rule="evenodd" clip-rule="evenodd" d="M9.20256 22.3513L6.80002 25.4978C6.5789 25.786 6.6333 26.1988 6.92287 26.4202C7.04221 26.5116 7.1826 26.5572 7.323 26.5572C7.51955 26.5572 7.71436 26.4676 7.84598 26.2972L10.2485 23.1507C10.4696 22.8626 10.4135 22.4497 10.1239 22.2283C9.83961 22.0087 9.42544 22.0614 9.20256 22.3513Z" stroke="black" stroke-width="0.2" mask="url(#path-1-inside-1)"/>
<path fill-rule="evenodd" clip-rule="evenodd" d="M11.7185 14.6376V24.0913H10.6795C10.3163 24.0913 10.0214 24.3865 10.0214 24.7501C10.0214 25.1138 10.3163 25.4089 10.6795 25.4089H11.7185V28.6451H4.90045V14.6376H11.7185ZM6.99587 10.8674H24.2278C25.7143 10.8674 26.9621 11.9198 27.2622 13.32H3.95804C4.26164 11.9198 5.50767 10.8674 6.99587 10.8674ZM34.4821 13.32H28.5819C28.4397 12.373 28.0115 11.521 27.3692 10.8674H31.4442C32.9325 10.8674 34.1785 11.9198 34.4821 13.32ZM33.5397 28.6451H27.6377V14.6376H33.5397V28.6451ZM14.2579 25.4089L13.9806 26.3717C13.949 26.4824 13.9473 26.6019 13.9736 26.7125L14.451 28.6451H13.0347V25.4089H14.2579ZM24.907 25.4089H26.3215V28.6451H24.8877L24.907 25.4089ZM22.5132 16.8144C22.5132 16.5421 22.7361 16.319 23.0099 16.319C23.2819 16.319 23.5048 16.5421 23.5048 16.8144C23.5048 17.048 23.3258 17.1781 23.2503 17.2237C23.1485 17.2852 23.0661 17.3713 23.0099 17.4715C22.952 17.3713 22.8695 17.2852 22.7677 17.2237C22.6922 17.1781 22.5132 17.048 22.5132 16.8144ZM22.7291 18.6977C22.8502 18.6345 22.945 18.5414 23.0099 18.4272C23.0731 18.5414 23.1678 18.6345 23.2889 18.6977L24.3226 19.2195L24.3524 22.6928L23.8277 23.1461C23.6838 23.2708 23.6013 23.4518 23.6013 23.6415L23.5943 24.7484V24.7519L23.5715 28.6451H23.0397L22.5062 28.6345L22.4606 24.7554L22.4624 24.7501L22.4606 24.7431L22.4483 23.696C22.4466 23.4852 22.3448 23.2884 22.1728 23.1654L21.6726 22.8106L21.6972 19.2195L22.7291 18.6977ZM18.4786 26.774L19.4421 25.4089H21.1514L21.19 28.6451H18.9559L18.4786 26.774ZM16.5832 18.6608C16.5832 18.3885 16.8061 18.1654 17.0799 18.1654C17.3519 18.1654 17.5748 18.3885 17.5748 18.6608C17.5748 18.8945 17.3958 19.0245 17.3203 19.0684C17.2185 19.1317 17.136 19.216 17.0799 19.3179C17.022 19.216 16.9412 19.1317 16.8377 19.0684C16.7622 19.0245 16.5832 18.8945 16.5832 18.6608ZM16.8008 20.4792C16.9202 20.4177 17.0167 20.3228 17.0799 20.2104C17.1431 20.3228 17.2396 20.4177 17.3589 20.4792L18.3926 21.0027L18.4224 24.2354C18.2662 24.3566 18.1592 24.5375 18.1592 24.7501C18.1592 24.8028 18.1785 24.8503 18.1908 24.9012L17.2291 26.261C17.115 26.4191 17.0799 26.6177 17.1273 26.8057L17.573 28.5502L15.7777 28.5239L15.2933 26.5685L15.7145 25.1156C15.7321 25.0576 15.7408 24.9961 15.7408 24.9364L15.7672 21.0027L16.8008 20.4792ZM26.3215 14.6376V24.0913H24.9158V23.949L25.444 23.4922C25.5897 23.3657 25.6739 23.1795 25.6722 22.988L25.6353 18.8084C25.6336 18.5607 25.4932 18.3358 25.2738 18.2251L24.4963 17.8316C24.7052 17.5365 24.821 17.1851 24.821 16.8144C24.821 15.8147 24.0085 15.0013 23.0099 15.0013C22.0096 15.0013 21.197 15.8147 21.197 16.8144C21.197 17.1851 21.3129 17.5365 21.5217 17.8316L20.746 18.2251C20.5249 18.3358 20.3845 18.5625 20.3827 18.8084L20.3546 23.1444C20.3529 23.3604 20.4564 23.5607 20.6302 23.6855L21.1356 24.0456V24.0913H19.7369L19.7053 20.5899C19.7036 20.3439 19.5632 20.119 19.3438 20.0084L18.5979 19.6306C18.7875 19.346 18.891 19.0122 18.891 18.6608C18.891 17.6612 18.0785 16.8478 17.0799 16.8478C16.0796 16.8478 15.267 17.6612 15.267 18.6608C15.267 19.0122 15.3706 19.346 15.5601 19.6306L14.816 20.0084C14.5949 20.119 14.4562 20.3457 14.4545 20.5916L14.4299 24.0913H13.0347V14.6376H26.3215ZM37.4357 28.6943H34.8559V14.6376H35.2104C35.5737 14.6376 35.8685 14.3425 35.8685 13.9788C35.8685 11.5368 33.8836 9.54977 31.4442 9.54977H24.4841C24.4542 9.54977 24.4279 9.56382 24.3998 9.56734C24.3402 9.56558 24.2858 9.54977 24.2278 9.54977H6.99587C4.55648 9.54977 2.57162 11.5368 2.57162 13.9788C2.57162 14.3425 2.86645 14.6376 3.22973 14.6376H3.58423V28.6943H1.38702C1.02374 28.6943 0.728907 28.9894 0.728907 29.3531C0.728907 29.7168 1.02374 30.0119 1.38702 30.0119H37.4357C37.799 30.0119 38.0938 29.7168 38.0938 29.3531C38.0938 28.9894 37.799 28.6943 37.4357 28.6943Z" stroke="black" stroke-width="0.2" mask="url(#path-1-inside-1)"/>
<path fill-rule="evenodd" clip-rule="evenodd" d="M41.0335 28.6943H39.6383C39.2751 28.6943 38.9802 28.9894 38.9802 29.3531C38.9802 29.7168 39.2751 30.0119 39.6383 30.0119H41.0335C41.3968 30.0119 41.6916 29.7168 41.6916 29.3531C41.6916 28.9894 41.3968 28.6943 41.0335 28.6943Z" stroke="black" stroke-width="0.2" mask="url(#path-1-inside-1)"/>
<path fill-rule="evenodd" clip-rule="evenodd" d="M8.02691 4.14795V6.21402C8.02691 6.57769 8.32175 6.87284 8.68502 6.87284H12.9917C13.355 6.87284 13.6498 6.57769 13.6498 6.21402V3.49088L15.2714 1.67429L16.7315 3.47331V5.09841C16.7315 5.46208 17.0264 5.75723 17.3896 5.75723H20.7539C21.1172 5.75723 21.412 5.46208 21.412 5.09841V2.45433H26.5031V6.21402C26.5031 6.57769 26.798 6.87284 27.1613 6.87284H30.5167C30.88 6.87284 31.1749 6.57769 31.1749 6.21402V3.96172C31.1749 3.25722 31.668 2.68624 32.27 2.68624C32.8737 2.68624 33.365 3.25722 33.365 3.96172V5.09841C33.365 5.46208 33.6599 5.75723 34.0232 5.75723H39.2301C39.5934 5.75723 39.8882 5.46208 39.8882 5.09841C39.8882 4.73474 39.5934 4.43959 39.2301 4.43959H34.6813V3.96172C34.6813 2.53164 33.6002 1.36859 32.27 1.36859C30.9414 1.36859 29.8586 2.53164 29.8586 3.96172V5.55519H27.8194V1.79551C27.8194 1.43184 27.5245 1.13669 27.1613 1.13669H20.7539C20.3906 1.13669 20.0958 1.43184 20.0958 1.79551V4.43959H18.0477V3.23965C18.0477 3.08856 17.9969 2.94098 17.9003 2.82503L15.8067 0.242447C15.6838 0.0931136 15.5048 0.00527058 15.31 0C15.1468 0.024596 14.9344 0.0773018 14.8046 0.219608L12.5021 2.80044C12.3933 2.92342 12.3336 3.07978 12.3336 3.23965V5.55519H9.34313V3.48913C9.34313 3.12545 9.0483 2.8303 8.68502 2.8303H0.966704C0.603427 2.8303 0.308594 3.12545 0.308594 3.48913C0.308594 3.8528 0.603427 4.14795 0.966704 4.14795H8.02691Z" stroke="black" stroke-width="0.2" mask="url(#path-1-inside-1)"/>
</svg>
